# xmcd
# 
# Track frame offsets:
#     150
#     887
#     9347
#     26244
#     42626
#     53792
#     72187
#     85863
#     105064
#     120038
#     134396
#     151807
#     167088
#     183994
#     200886
#     217850
#     229033
# 
# Disc length: 3408
# 
# Revision: 9
# Processed by: cddbd v1.5.2PL0 Copyright (c) Steve Scherf et al.
# Submitted via: fre:ac v1.0.31
# 
DISCID=ca0d4e11
DTITLE=Various Artist - Mis värvi on armastus
DYEAR=1996
DGENRE=Pop
TTITLE0=Various Artist - Intro - Kuku
TTITLE1=Various Artist - Heidy Tamme - Pühapäev
TTITLE2=Various Artist - Kalmer Tennosaar - Jamaika hällilaul
TTITLE3=Various Artist - Vello Orumets - Hüvasti Maria
TTITLE4=Various Artist - Ivo Linna - Kikilips
TTITLE5=Various Artist - Els Himma - Millest sa elad ja hingad
TTITLE6=Various Artist - Mait Maltis - Must kohv
TTITLE7=Various Artist - Mati Nuude - Suveöö
TTITLE8=Various Artist - Anne Veski - Tähelend
TTITLE9=Various Artist - Tarmo Pihlap - Mustlase elu
TTITLE10=Various Artist - Uno Loop - Mis värvi on armastus
TTITLE11=Various Artist - Heli Lääts - Mööda teed
TTITLE12=Various Artist - Boris Lehtlaan - Maria
TTITLE13=Various Artist - Silvi Vrait - Vana pildiraam
TTITLE14=Various Artist - Voldemar Kuslap - Kui ootab sadam
TTITLE15=Various Artist - Andres Ots - Puuriida
TTITLE16=Various Artist - Artur Rinne - Valsside popurrii
EXTD=
EXTT0=
EXTT1=
EXTT2=
EXTT3=
EXTT4=
EXTT5=
EXTT6=
EXTT7=
EXTT8=
EXTT9=
EXTT10=
EXTT11=
EXTT12=
EXTT13=
EXTT14=
EXTT15=
EXTT16=
PLAYORDER=
